Coordinates
version=1
nRows=26
nColumns=24
inDegrees=yes

Units are S.I. units (second, meters, Newtons, ...)
Angles are in degrees.

endheader
time	pelvis_tilt	pelvis_list	pelvis_rotation	pelvis_tx	pelvis_ty	pelvis_tz	hip_flexion_r	hip_adduction_r	hip_rotation_r	knee_angle_r	ankle_angle_r	subtalar_angle_r	mtp_angle_r	hip_flexion_l	hip_adduction_l	hip_rotation_l	knee_angle_l	ankle_angle_l	subtalar_angle_l	mtp_angle_l	lumbar_extension	lumbar_bending	lumbar_rotation
      3.63000000	     -6.19161149	     -0.76614294	    -11.86101003	      0.05430332	      0.94983868	      0.01562444	     22.11552217	     -0.55347720	     -1.60783274	     -0.08089197	     -3.31953404	      0.00000000	      0.00000000	     -8.35042391	     -0.87329498	    -12.90966061	     -4.77200014	     10.89195646	      0.00000000	      0.00000000	     -0.11372407	     -0.95492762	     -5.77409841
      3.64000000	     -6.21408975	     -0.72686975	    -11.68017914	      0.05499582	      0.94893466	      0.01745780	     22.06267109	     -0.47614623	     -1.49847556	     -0.17345600	     -3.41224046	      0.00000000	      0.00000000	     -8.64841041	     -0.94107227	    -12.83862793	     -5.16471013	     10.83997224	      0.00000000	      0.00000000	     -0.02257560	     -0.83554118	     -5.92939081
      3.65000000	     -6.20618679	     -0.72346085	    -11.46665148	      0.05590358	      0.94814159	      0.01933125	     21.95806638	     -0.39674646	     -1.45535960	     -0.49518446	     -3.60034649	      0.00000000	      0.00000000	     -8.96913162	     -1.04670056	    -12.72297900	     -5.61014860	     10.80038214	      0.00000000	      0.00000000	      0.05271009	     -0.68001810	     -6.07059403
      3.66000000	     -6.18028213	     -0.74958617	    -11.22690080	      0.05698693	      0.94744899	      0.02122460	     21.82796554	     -0.32195999	     -1.42781688	     -1.02742227	     -3.85835507	      0.00000000	      0.00000000	     -9.29525074	     -1.19046608	    -12.58548405	     -6.09718514	     10.73101741	      0.00000000	      0.00000000	      0.12620061	     -0.48803887	     -6.19776521
      3.67000000	     -6.12692212	     -0.83310731	    -10.97516842	      0.05817854	      0.94692193	      0.02325975	     21.66364452	     -0.20307832	     -1.48451274	     -1.73500773	     -4.14380743	      0.00000000	      0.00000000	     -9.61371027	     -1.41450699	    -12.39128681	     -6.70435432	     10.65483554	      0.00000000	      0.00000000	      0.17440203	     -0.25100567	     -6.30190400
      3.68000000	     -6.06895998	     -1.04156825	    -10.60787649	      0.05952387	      0.94654834	      0.02531529	     21.42844176	     -0.00979805	     -1.78348665	     -2.51778985	     -4.29526639	      0.00000000	      0.00000000	     -9.87192092	     -1.81511155	    -12.14738204	     -7.49169202	     10.76300725	      0.00000000	      0.00000000	      0.21742457	      0.10306816	     -6.48698036
      3.69000000	     -6.03822081	     -1.11679542	    -10.38635874	      0.06093031	      0.94630388	      0.02744629	     21.26306628	      0.06300175	     -1.66528215	     -3.37169317	     -4.64518357	      0.00000000	      0.00000000	    -10.13189797	     -2.03906712	    -11.96224440	     -8.13763023	     10.47200223	      0.00000000	      0.00000000	      0.32444911	      0.34691380	     -6.50054772
      3.70000000	     -6.00254108	     -1.25277380	    -10.17610999	      0.06231899	      0.94627830	      0.02973818	     21.08075033	      0.19771394	     -1.66873905	     -4.28123172	     -4.86245000	      0.00000000	      0.00000000	    -10.32431286	     -2.35157416	    -11.79937747	     -8.94849241	     10.13466727	      0.00000000	      0.00000000	      0.41776220	      0.62974394	     -6.45601367
      3.71000000	     -6.07480331	     -1.54844559	     -9.89702118	      0.06378102	      0.94631724	      0.03207536	     20.98094715	      0.48953129	     -1.96165443	     -5.28750278	     -4.58387616	      0.00000000	      0.00000000	    -10.29549539	     -2.89988170	    -11.64931673	    -10.04069744	     10.02454386	      0.00000000	      0.00000000	      0.61758461	      1.09806722	     -6.48077940
      3.72000000	     -6.07774707	     -1.69191156	     -9.66100352	      0.06512594	      0.94673296	      0.03453858	     20.79600510	      0.61109525	     -1.90296314	     -6.16566818	     -4.62731273	      0.00000000	      0.00000000	    -10.30688282	     -3.27609754	    -11.55559799	    -11.04391703	      9.49249853	      0.00000000	      0.00000000	      0.74346456	      1.34722816	     -6.42439884
      3.73000000	     -6.16707288	     -1.92759961	     -9.44705714	      0.06648053	      0.94723759	      0.03708109	     20.68358103	      0.84748694	     -2.00721643	     -7.08838924	     -4.25193583	      0.00000000	      0.00000000	    -10.14742603	     -3.78479709	    -11.44964042	    -12.23617833	      8.98011412	      0.00000000	      0.00000000	      0.95601187	      1.71091921	     -6.32038642
      3.74000000	     -6.24256942	     -2.10949456	     -9.28767185	      0.06776471	      0.94797624	      0.03968326	     20.52185026	      1.04866413	     -2.06631471	     -7.89852908	     -3.87464829	      0.00000000	      0.00000000	     -9.93115661	     -4.23849517	    -11.30559682	    -13.51020276	      8.30314174	      0.00000000	      0.00000000	      1.13894134	      2.00290201	     -6.14547740
      3.75000000	     -6.30252837	     -2.30472341	     -9.11801033	      0.06903379	      0.94894968	      0.04239341	     20.31051608	      1.26373370	     -2.15469492	     -8.66182661	     -3.36308160	      0.00000000	      0.00000000	     -9.64634461	     -4.73144418	    -11.17945272	    -14.90456279	      7.47038891	      0.00000000	      0.00000000	      1.30377467	      2.27312237	     -5.96271550
      3.76000000	     -6.29896891	     -2.44284057	     -8.98273112	      0.07020073	      0.95013341	      0.04518159	     19.97908961	      1.43661162	     -2.18429112	     -9.27548220	     -2.92483999	      0.00000000	      0.00000000	     -9.34448324	     -5.16825124	    -11.02800041	    -16.38969269	      6.48293758	      0.00000000	      0.00000000	      1.37330594	      2.45140456	     -5.71755760
      3.77000000	     -6.27644048	     -2.57429624	     -8.82222320	      0.07129212	      0.95144593	      0.04801100	     19.60207373	      1.61176070	     -2.23659250	     -9.83784941	     -2.38314704	      0.00000000	      0.00000000	     -8.95552647	     -5.62242195	    -10.87525374	    -18.01327056	      5.37011940	      0.00000000	      0.00000000	      1.40786654	      2.59497649	     -5.49523793
      3.78000000	     -6.44591028	     -2.65893472	     -8.58397863	      0.07228226	      0.95248970	      0.05068162	     19.47111361	      1.74703143	     -2.48959958	    -10.49643521	     -1.57978511	      0.00000000	      0.00000000	     -8.19623809	     -6.08670790	    -10.50821734	    -19.89012086	      4.32696974	      0.00000000	      0.00000000	      1.66605039	      2.70904484	     -5.31691840
      3.79000000	     -6.31927184	     -2.69406814	     -8.45191923	      0.07323771	      0.95396258	      0.05356380	     18.89749923	      1.84797921	     -2.47934007	    -10.82111382	     -1.12688300	      0.00000000	      0.00000000	     -7.73649588	     -6.45064263	    -10.33103277	    -21.72599743	      2.99946095	      0.00000000	      0.00000000	      1.56858034	      2.69587902	     -4.99482001
      3.80000000	     -6.31533848	     -2.76275654	     -8.15840520	      0.07412703	      0.95516635	      0.05618779	     18.46124730	      1.95945488	     -2.77163660	    -11.20372550	     -0.39261092	      0.00000000	      0.00000000	     -6.98451897	     -6.90119162	     -9.89912561	    -23.77261520	      1.62138306	      0.00000000	      0.00000000	      1.61069207	      2.73035199	     -4.82203409
      3.81000000	     -6.13658736	     -2.70683325	     -7.93309087	      0.07480195	      0.95649943	      0.05889448	     17.81127182	      1.95626185	     -2.70345550	    -11.42290600	      0.03123199	      0.00000000	      0.00000000	     -6.30378921	     -7.21345981	     -9.66883096	    -25.95973258	      0.22110259	      0.00000000	      0.00000000	      1.43328667	      2.57873552	     -4.55346105
      3.82000000	     -6.13459716	     -2.70277953	     -7.60783115	      0.07546004	      0.95744793	      0.06125373	     17.33300700	      1.99558753	     -3.08983587	    -11.64041069	      0.67536569	      0.00000000	      0.00000000	     -5.33121569	     -7.57641323	     -9.06765431	    -28.26143592	     -1.13877797	      0.00000000	      0.00000000	      1.46876883	      2.52460592	     -4.33302984
      3.83000000	     -5.92087464	     -2.59047737	     -7.38331977	      0.07588400	      0.95849965	      0.06374881	     16.62888784	      1.93793233	     -3.02092277	    -11.76351048	      1.06667715	      0.00000000	      0.00000000	     -4.50050076	     -7.81452909	     -8.75923856	    -30.66271461	     -2.42837763	      0.00000000	      0.00000000	      1.23970158	      2.29578157	     -4.00090949
      3.84000000	     -5.99327844	     -2.56270118	     -6.89805602	      0.07611968	      0.95899194	      0.06565449	     16.24870458	      1.91014818	     -3.44790753	    -11.97084939	      1.65759072	      0.00000000	      0.00000000	     -3.14897149	     -8.16601529	     -8.01396057	    -33.32665567	     -3.59219870	      0.00000000	      0.00000000	      1.33203787	      2.21571043	     -3.89008085
      3.85000000	     -5.70346011	     -2.39893796	     -6.70999497	      0.07628800	      0.95983373	      0.06781370	     15.46117101	      1.78077756	     -3.33942352	    -12.02091226	      2.02790040	      0.00000000	      0.00000000	     -2.28515237	     -8.30325251	     -7.77631473	    -35.79788649	     -4.64685746	      0.00000000	      0.00000000	      1.00718745	      1.93897360	     -3.43245717
      3.86000000	     -5.69112498	     -2.45328444	     -6.13412047	      0.07629468	      0.96012114	      0.06934543	     15.00343970	      1.80345651	     -3.82419240	    -12.27009419	      2.77438441	      0.00000000	      0.00000000	     -0.89698401	     -8.69034400	     -6.94930763	    -38.50576096	     -5.64659856	      0.00000000	      0.00000000	      0.98315499	      1.93252804	     -3.36204866
      3.87000000	     -5.60723147	     -2.39201995	     -5.71739815	      0.07612096	      0.96040076	      0.07087592	     14.49199726	      1.72736557	     -4.00649438	    -12.47583734	      3.31459407	      0.00000000	      0.00000000	      0.40030549	     -8.90376102	     -6.34410731	    -41.13437982	     -6.28407997	      0.00000000	      0.00000000	      0.87652200	      1.79723508	     -3.09092146
      3.88000000	     -5.46618603	     -2.33032189	     -5.31242156	      0.07586845	      0.96069630	      0.07225609	     13.93434321	      1.64149182	     -4.14394800	    -12.70641573	      3.87902451	      0.00000000	      0.00000000	      1.62389811	     -9.06273513	     -5.73841466	    -43.61635548	     -6.72576795	      0.00000000	      0.00000000	      0.70809568	      1.65737434	     -2.76763717
